<svg width="12" height="8" viewBox="0 0 12 8" fill="none" xmlns="http://www.w3.org/2000/svg">
<path d="M6.67982 0.213178C6.84056 0.0766801 7.05854 0 7.28583 0C7.51311 0 7.73109 0.0766801 7.89183 0.213178L11.749 3.48963C11.9097 3.62617 12 3.81133 12 4.0044C12 4.19746 11.9097 4.38262 11.749 4.51916L7.89183 7.79561C7.73017 7.92824 7.51365 8.00163 7.28891 7.99997C7.06417 7.99831 6.84918 7.92174 6.69026 7.78674C6.53133 7.65175 6.44119 7.46913 6.43923 7.27823C6.43728 7.08732 6.52368 6.9034 6.67982 6.76608L9.00014 4.7325H0.857156C0.629824 4.7325 0.411803 4.65579 0.251055 4.51924C0.0903073 4.3827 0 4.1975 0 4.0044C0 3.81129 0.0903073 3.6261 0.251055 3.48955C0.411803 3.35301 0.629824 3.2763 0.857156 3.2763H9.00014L6.67982 1.24271C6.51912 1.10617 6.42885 0.921011 6.42885 0.727945C6.42885 0.534879 6.51912 0.349717 6.67982 0.213178Z" fill="currentColor"/>
</svg>
