<svg width="40" height="40" viewBox="0 0 40 40" fill="none" xmlns="http://www.w3.org/2000/svg">
<path d="M28.76 31.1467L30.8467 29.06C31.0393 28.8689 31.1356 28.6459 31.1356 28.3911C31.1356 28.1363 31.0393 27.9118 30.8467 27.7178L22.3933 19.2511C22.6274 18.8156 22.803 18.3444 22.92 17.8378C23.037 17.3311 23.0948 16.7756 23.0933 16.1711C23.0933 14.2126 22.3941 12.5378 20.9956 11.1467C19.5956 9.75555 17.9104 9.06 15.94 9.06C15.3963 9.06 14.8822 9.12074 14.3978 9.24222C13.9133 9.3637 13.443 9.53259 12.9867 9.74889L17.6111 14.4156L14.1578 17.8689L9.44889 13.2022C9.23852 13.6511 9.07111 14.1267 8.94667 14.6289C8.82222 15.1296 8.76 15.6526 8.76 16.1978C8.76 18.1681 9.46 19.8526 10.86 21.2511C12.26 22.6496 13.9452 23.3496 15.9156 23.3511C16.4785 23.3511 17.0096 23.2852 17.5089 23.1533C18.0081 23.0215 18.5037 22.8533 18.9956 22.6489L27.4622 31.1022C27.6548 31.2963 27.8711 31.4 28.1111 31.4133C28.3511 31.4267 28.5674 31.3378 28.76 31.1467ZM20.0067 40C17.2422 40 14.6422 39.4756 12.2067 38.4267C9.77259 37.3763 7.65481 35.9511 5.85333 34.1511C4.05185 32.3511 2.62593 30.2356 1.57556 27.8044C0.525185 25.3733 0 22.7741 0 20.0067C0 17.2393 0.525185 14.6393 1.57556 12.2067C2.62444 9.77259 4.04741 7.65481 5.84444 5.85333C7.64148 4.05185 9.75778 2.62593 12.1933 1.57556C14.6289 0.525185 17.2289 0 19.9933 0C22.7578 0 25.3578 0.525185 27.7933 1.57556C30.2274 2.62444 32.3452 4.04815 34.1467 5.84667C35.9481 7.64518 37.3741 9.76148 38.4244 12.1956C39.4748 14.6296 40 17.2289 40 19.9933C40 22.7578 39.4756 25.3578 38.4267 27.7933C37.3778 30.2289 35.9526 32.3467 34.1511 34.1467C32.3496 35.9467 30.2341 37.3726 27.8044 38.4244C25.3748 39.4763 22.7756 40.0015 20.0067 40ZM20 37.7778C24.963 37.7778 29.1667 36.0556 32.6111 32.6111C36.0556 29.1667 37.7778 24.963 37.7778 20C37.7778 15.037 36.0556 10.8333 32.6111 7.38889C29.1667 3.94444 24.963 2.22222 20 2.22222C15.037 2.22222 10.8333 3.94444 7.38889 7.38889C3.94444 10.8333 2.22222 15.037 2.22222 20C2.22222 24.963 3.94444 29.1667 7.38889 32.6111C10.8333 36.0556 15.037 37.7778 20 37.7778Z" fill="white"/>
</svg>
