<svg viewBox="0 0 8 6" fill="none" xmlns="http://www.w3.org/2000/svg">
<path d="M5.25 2.25002H2.75C2.41848 2.25002 2.10054 2.38171 1.86612 2.61613C1.6317 2.85055 1.5 3.1685 1.5 3.50002V3.75002C1.5 3.91417 1.53233 4.07672 1.59515 4.22837C1.65797 4.38003 1.75005 4.51783 1.86612 4.6339C2.10054 4.86832 2.41848 5.00002 2.75 5.00002H5.25C5.41415 5.00002 5.5767 4.96769 5.72836 4.90487C5.88001 4.84205 6.01781 4.74997 6.13389 4.6339C6.24996 4.51783 6.34203 4.38003 6.40485 4.22837C6.46767 4.07672 6.5 3.91417 6.5 3.75002V3.50002C6.5 3.1685 6.36831 2.85055 6.13389 2.61613C5.89946 2.38171 5.58152 2.25002 5.25 2.25002ZM6 3.75002C6 3.94893 5.92098 4.1397 5.78033 4.28035C5.63968 4.421 5.44891 4.50002 5.25 4.50002H2.75C2.55109 4.50002 2.36032 4.421 2.21967 4.28035C2.07902 4.1397 2 3.94893 2 3.75002V3.50002C2 3.30111 2.07902 3.11034 2.21967 2.96969C2.36032 2.82904 2.55109 2.75002 2.75 2.75002H5.25C5.44891 2.75002 5.63968 2.82904 5.78033 2.96969C5.92098 3.11034 6 3.30111 6 3.50002V3.75002ZM6.5 0.250018C6.2783 0.250227 6.06293 0.323967 5.88763 0.459686C5.71232 0.595405 5.58699 0.785438 5.53125 1.00002H2.46875C2.4083 0.763896 2.26369 0.557983 2.0621 0.420979C1.86051 0.283974 1.61582 0.225311 1.37403 0.256016C1.13223 0.28672 0.909973 0.404677 0.749026 0.587718C0.588078 0.770759 0.499522 1.00628 0.500002 1.25002V3.75002C0.500664 4.34655 0.737929 4.91846 1.15974 5.34028C1.58156 5.76209 2.15347 5.99936 2.75 6.00002H5.25C5.84654 5.99936 6.41845 5.76209 6.84026 5.34028C7.26207 4.91846 7.49934 4.34655 7.5 3.75002V1.25002C7.5 0.984801 7.39464 0.730447 7.20711 0.542911C7.01957 0.355375 6.76522 0.250018 6.5 0.250018ZM7 3.75002C6.99951 4.21399 6.81497 4.65883 6.48689 4.98691C6.15881 5.31499 5.71398 5.49952 5.25 5.50002H2.75C2.28603 5.49952 1.84119 5.31499 1.51311 4.98691C1.18503 4.65883 1.0005 4.21399 1 3.75002V1.25002C1 1.11741 1.05268 0.990232 1.14645 0.896464C1.24022 0.802696 1.36739 0.750018 1.5 0.750018C1.63261 0.750018 1.75979 0.802696 1.85356 0.896464C1.94732 0.990232 2 1.11741 2 1.25002C2 1.31632 2.02634 1.37991 2.07323 1.42679C2.12011 1.47368 2.1837 1.50002 2.25 1.50002H5.75C5.81631 1.50002 5.87989 1.47368 5.92678 1.42679C5.97366 1.37991 6 1.31632 6 1.25002C6 1.11741 6.05268 0.990232 6.14645 0.896464C6.24022 0.802696 6.36739 0.750018 6.5 0.750018C6.63261 0.750018 6.75979 0.802696 6.85356 0.896464C6.94732 0.990232 7 1.11741 7 1.25002V3.75002ZM3.25 3.62502C3.25 3.69919 3.22801 3.77169 3.1868 3.83336C3.1456 3.89502 3.08703 3.94309 3.01851 3.97147C2.94999 3.99986 2.87459 4.00728 2.80184 3.99281C2.7291 3.97834 2.66228 3.94263 2.60984 3.89018C2.55739 3.83774 2.52168 3.77092 2.50721 3.69818C2.49274 3.62543 2.50016 3.55003 2.52855 3.48151C2.55693 3.41299 2.60499 3.35442 2.66666 3.31322C2.72833 3.27201 2.80083 3.25002 2.875 3.25002C2.97446 3.25002 3.06984 3.28953 3.14017 3.35985C3.21049 3.43018 3.25 3.52556 3.25 3.62502ZM5.5 3.62502C5.5 3.69919 5.47801 3.77169 5.4368 3.83336C5.3956 3.89502 5.33703 3.94309 5.26851 3.97147C5.19999 3.99986 5.12459 4.00728 5.05184 3.99281C4.9791 3.97834 4.91228 3.94263 4.85984 3.89018C4.80739 3.83774 4.77168 3.77092 4.75721 3.69818C4.74274 3.62543 4.75016 3.55003 4.77855 3.48151C4.80693 3.41299 4.85499 3.35442 4.91666 3.31322C4.97833 3.27201 5.05083 3.25002 5.125 3.25002C5.22446 3.25002 5.31984 3.28953 5.39017 3.35985C5.46049 3.43018 5.5 3.52556 5.5 3.62502Z" fill="black"/>
</svg>
