<svg width="44" height="44" viewBox="0 0 44 44" fill="none" xmlns="http://www.w3.org/2000/svg">
<path d="M28.5168 32.0238L15.4832 26.0951M28.7286 12.4476L15.2713 19.7881M9.05946 30.2357C9.98652 30.2357 10.9045 30.0531 11.761 29.6983C12.6175 29.3435 13.3957 28.8235 14.0513 28.168C14.7068 27.5125 15.2268 26.7342 15.5815 25.8778C15.9363 25.0213 16.1189 24.1033 16.1189 23.1762C16.1189 22.2492 15.9363 21.3312 15.5815 20.4747C15.2268 19.6182 14.7068 18.84 14.0513 18.1844C13.3957 17.5289 12.6175 17.0089 11.761 16.6541C10.9045 16.2994 9.98652 16.1168 9.05946 16.1168C7.18717 16.1168 5.39157 16.8605 4.06767 18.1844C2.74376 19.5083 2 21.3039 2 23.1762C2 25.0485 2.74376 26.8441 4.06767 28.168C5.39157 29.4919 7.18717 30.2357 9.05946 30.2357ZM34.9405 16.1189C35.8676 16.1189 36.7856 15.9363 37.6421 15.5815C38.4986 15.2268 39.2768 14.7068 39.9323 14.0513C40.5879 13.3957 41.1079 12.6175 41.4626 11.761C41.8174 10.9045 42 9.98652 42 9.05946C42 8.1324 41.8174 7.21441 41.4626 6.35792C41.1079 5.50143 40.5879 4.7232 39.9323 4.06767C39.2768 3.41214 38.4986 2.89214 37.6421 2.53737C36.7856 2.1826 35.8676 2 34.9405 2C33.0683 2 31.2727 2.74376 29.9487 4.06767C28.6248 5.39157 27.8811 7.18717 27.8811 9.05946C27.8811 10.9317 28.6248 12.7273 29.9487 14.0513C31.2727 15.3752 33.0683 16.1189 34.9405 16.1189ZM34.9405 42C36.8128 42 38.6084 41.2562 39.9323 39.9323C41.2562 38.6084 42 36.8128 42 34.9405C42 33.0683 41.2562 31.2727 39.9323 29.9487C38.6084 28.6248 36.8128 27.8811 34.9405 27.8811C33.0683 27.8811 31.2727 28.6248 29.9487 29.9487C28.6248 31.2727 27.8811 33.0683 27.8811 34.9405C27.8811 36.8128 28.6248 38.6084 29.9487 39.9323C31.2727 41.2562 33.0683 42 34.9405 42Z" stroke="white" stroke-width="2.5" stroke-linecap="round" stroke-linejoin="round"/>
</svg>
