<svg width="108" height="40" viewBox="0 0 108 40" fill="none" xmlns="http://www.w3.org/2000/svg">
<path d="M48.2686 8.90804C48.2686 9.48855 48.0466 9.99305 47.6028 10.4215C47.1733 10.85 46.6507 11.0642 46.035 11.0642C45.4193 11.0642 44.8896 10.85 44.4457 10.4215C44.0162 9.99305 43.8014 9.48855 43.8014 8.90804C43.8014 8.29988 44.0162 7.78847 44.4457 7.37382C44.8753 6.95916 45.405 6.75183 46.035 6.75183C46.6507 6.75183 47.1733 6.95916 47.6028 7.37382C48.0466 7.78847 48.2686 8.29988 48.2686 8.90804ZM51.2753 33.9739C51.2753 34.3609 51.1607 34.5544 50.9316 34.5544C50.3446 34.5544 49.5929 34.513 48.6766 34.43C47.6457 34.3471 46.7795 34.3057 46.0779 34.3057C45.3621 34.3057 44.503 34.3471 43.5008 34.43C42.5988 34.513 41.8542 34.5544 41.2672 34.5544C41.0381 34.5544 40.9236 34.3609 40.9236 33.9739C40.9236 33.6284 41.0381 33.4418 41.2672 33.4141C42.4842 33.2621 43.2645 32.9788 43.6081 32.5641C43.9661 32.1494 44.1451 31.2649 44.1451 29.9103V22.2392C44.1451 21.1334 43.9947 20.4078 43.6941 20.0623C43.4077 19.7167 42.7706 19.4886 41.7826 19.3781C41.5536 19.3781 41.439 19.1984 41.439 18.839C41.439 18.5073 41.5536 18.3414 41.7826 18.3414C43.286 17.9682 44.5173 17.5743 45.4766 17.1597C46.4359 16.7312 47.0372 16.3787 47.2806 16.1023C47.4238 15.9364 47.5813 15.8535 47.7531 15.8535C48.154 15.8535 48.3545 15.9641 48.3545 16.1852C48.1254 19.2813 48.0108 21.6863 48.0108 23.4002V29.9103C48.0108 31.2649 48.1826 32.1494 48.5263 32.5641C48.8842 32.9788 49.686 33.2621 50.9316 33.4141C51.1607 33.4418 51.2753 33.6284 51.2753 33.9739Z" fill="black"/>
<path d="M38.0923 19.2952C38.0923 20.4286 37.5053 20.9953 36.3312 20.9953C35.8301 20.9953 35.4149 20.8916 35.0856 20.6843C34.7706 20.4769 34.4485 20.0277 34.1192 19.3366C33.7326 18.5212 33.3174 17.989 32.8735 17.7402C32.444 17.4776 31.8785 17.3463 31.1769 17.3463C29.4444 17.3463 28.1201 18.0443 27.2037 19.4403C26.3017 20.8225 25.8507 22.8474 25.8507 25.515C25.8507 27.7403 26.4234 29.5372 27.5688 30.9055C28.7142 32.2601 30.2462 32.9373 32.1648 32.9373C34.3411 32.9373 36.0664 32.2808 37.3406 30.9677L37.448 30.9263C37.5769 30.9263 37.6986 31.0092 37.8131 31.175C37.942 31.3271 38.0064 31.4999 38.0064 31.6934C38.0064 31.9698 37.584 32.4467 36.7393 33.1239C35.9089 33.8012 34.9925 34.3126 33.9903 34.6581C33.0024 35.0037 31.95 35.1765 30.8333 35.1765C28.2704 35.1765 26.0726 34.2711 24.24 32.4605C22.4216 30.636 21.5125 28.3347 21.5125 25.5565C21.5125 22.8059 22.4646 20.5322 24.3688 18.7354C26.2874 16.9247 28.5567 16.0194 31.1769 16.0194C33.1098 16.0194 34.742 16.3442 36.0735 16.9938C37.4194 17.6297 38.0923 18.3968 38.0923 19.2952Z" fill="black"/>
<path d="M18.4483 26.2199C18.4483 28.9705 17.6036 31.1612 15.9141 32.7922C14.2246 34.4094 11.9409 35.2179 9.06309 35.2179C7.78882 35.2179 6.26399 34.9968 4.48859 34.5545C2.8707 34.1398 1.54631 33.9325 0.515437 33.9325C0.42953 31.5828 0.257718 29.2331 0 26.8834C0 26.6622 0.214765 26.5517 0.644296 26.5517C0.944967 26.5517 1.1311 26.6622 1.20269 26.8834C1.97584 29.4542 2.96376 31.2649 4.16645 32.3154C5.36913 33.3658 7.05862 33.891 9.2349 33.891C10.9673 33.891 12.306 33.4073 13.251 32.4398C14.2103 31.4722 14.6899 30.1177 14.6899 28.3761C14.6899 27.2566 14.2747 26.2199 13.4443 25.2662C12.6139 24.2987 10.8456 23.0547 8.1396 21.5343C5.03267 19.8066 2.99955 18.3415 2.04027 17.139C1.08098 15.9365 0.601343 14.6027 0.601343 13.1376C0.601343 10.8846 1.4604 8.98411 3.17853 7.43606C4.91096 5.8742 7.10157 5.09326 9.75034 5.09326C10.7526 5.09326 11.9052 5.22457 13.2081 5.48718C14.4251 5.72215 15.4774 5.83964 16.3651 5.83964C16.5369 8.27228 16.766 10.4147 17.0524 12.2668C17.0524 12.4879 16.8662 12.5985 16.494 12.5985C16.0931 12.5985 15.8711 12.4879 15.8282 12.2668C15.3557 10.1935 14.6398 8.70076 13.6805 7.78852C12.7213 6.87628 11.3969 6.42016 9.70739 6.42016C8.10381 6.42016 6.82953 6.87628 5.88457 7.78852C4.9396 8.70076 4.46712 9.9309 4.46712 11.4789C4.46712 12.4603 4.86085 13.4002 5.64833 14.2986C6.45012 15.1832 8.1754 16.3719 10.8242 17.8646C13.9597 19.6338 16.0143 21.1128 16.9879 22.3014C17.9615 23.4901 18.4483 24.7963 18.4483 26.2199Z" fill="black"/>
<path d="M107.648 25.9434C107.648 28.694 106.803 30.8847 105.113 32.5157C103.424 34.1329 101.14 34.9415 98.2623 34.9415C96.988 34.9415 95.4632 34.7203 93.6878 34.278C92.0699 33.8633 90.7455 33.656 89.7147 33.656C89.6287 31.3063 89.4569 28.9566 89.1992 26.6069C89.1992 26.3857 89.414 26.2752 89.8435 26.2752C90.1442 26.2752 90.3303 26.3857 90.4019 26.6069C91.1751 29.1777 92.163 30.9884 93.3657 32.0389C94.5683 33.0893 96.2578 33.6146 98.4341 33.6146C100.167 33.6146 101.505 33.1308 102.45 32.1633C103.41 31.1957 103.889 29.8412 103.889 28.0996C103.889 26.9801 103.474 25.9434 102.644 24.9897C101.813 24.0222 100.045 22.7782 97.3388 21.2578C94.2319 19.5301 92.1988 18.065 91.2395 16.8625C90.2802 15.66 89.8006 14.3262 89.8006 12.8611C89.8006 10.6081 90.6596 8.70762 92.3777 7.15957C94.1102 5.59771 96.3008 4.81677 98.9496 4.81677C99.9518 4.81677 101.104 4.94808 102.407 5.21069C103.624 5.44567 104.677 5.56315 105.564 5.56315C105.736 7.99579 105.965 10.1382 106.252 11.9903C106.252 12.2115 106.065 12.322 105.693 12.322C105.292 12.322 105.07 12.2115 105.027 11.9903C104.555 9.91703 103.839 8.42427 102.88 7.51203C101.92 6.59979 100.596 6.14367 98.9066 6.14367C97.303 6.14367 96.0288 6.59979 95.0838 7.51203C94.1388 8.42427 93.6663 9.65441 93.6663 11.2025C93.6663 12.1838 94.0601 13.1237 94.8475 14.0221C95.6493 14.9067 97.3746 16.0954 100.023 17.5881C103.159 19.3573 105.214 20.8363 106.187 22.025C107.161 23.2136 107.648 24.5198 107.648 25.9434Z" fill="black"/>
<path fill-rule="evenodd" clip-rule="evenodd" d="M77.8534 29.7571C75.5597 31.594 72.6869 32.6231 69.7071 32.6753C66.7274 32.7275 63.8178 31.7997 61.4566 30.0443C59.0953 28.2889 57.4227 25.8104 56.7137 23.0159C56.0047 20.2215 56.3014 17.2773 57.5551 14.6672C58.8088 12.0571 60.9448 9.93625 63.6123 8.65316C66.2798 7.37007 69.32 7.00105 72.2335 7.60673C75.147 8.21241 77.7604 9.75677 79.6443 11.9861C81.5283 14.2153 82.5707 16.997 82.6004 19.8739C82.6089 20.6944 83.3048 21.353 84.1548 21.3449C85.0048 21.3367 85.687 20.6649 85.6785 19.8443C85.6419 16.293 84.3551 12.8594 82.0296 10.1075C79.704 7.35566 76.478 5.44929 72.8815 4.70164C69.2851 3.95398 65.5322 4.4095 62.2394 5.99335C58.9467 7.57721 56.3099 10.1952 54.7624 13.4172C53.2149 16.6391 52.8486 20.2734 53.7238 23.7229C54.599 27.1724 56.6636 30.2319 59.5784 32.3988C62.4932 34.5656 66.0847 35.7109 69.763 35.6465C73.4413 35.5821 76.9874 34.3117 79.8188 32.0442C80.4731 31.5203 80.5635 30.5835 80.0207 29.952C79.478 29.3204 78.5077 29.2331 77.8534 29.7571Z" fill="#3A5837"/>
<path d="M84.7178 25.4942C84.7178 27.04 83.4198 28.2932 81.8185 28.2932C80.2173 28.2932 78.9192 27.04 78.9192 25.4942C78.9192 23.9484 80.2173 22.6953 81.8185 22.6953C83.4198 22.6953 84.7178 23.9484 84.7178 25.4942Z" fill="#3A5837"/>
</svg>
