<svg xmlns="http://www.w3.org/2000/svg" version="1.1" xmlns:xlink="http://www.w3.org/1999/xlink" xmlns:svgjs="http://svgjs.dev/svgjs" width="1000" height="1000"><style>
    #light-icon {
      display: inline;
    }
    #dark-icon {
      display: none;
    }

    @media (prefers-color-scheme: dark) {
      #light-icon {
        display: none;
      }
      #dark-icon {
        display: inline;
      }
    }
  </style><g id="light-icon"><svg xmlns="http://www.w3.org/2000/svg" version="1.1" xmlns:xlink="http://www.w3.org/1999/xlink" xmlns:svgjs="http://svgjs.dev/svgjs" width="1000" height="1000"><g clip-path="url(#SvgjsClipPath1050)"><rect width="1000" height="1000" fill="#ffffff"></rect><g transform="matrix(24.390243902439025,0,0,24.390243902439025,0,12.195121951219505)"><svg xmlns="http://www.w3.org/2000/svg" version="1.1" xmlns:xlink="http://www.w3.org/1999/xlink" xmlns:svgjs="http://svgjs.dev/svgjs" width="41" height="40"><svg width="41" height="40" viewBox="0 0 41 40" fill="none" xmlns="http://www.w3.org/2000/svg">
<path fill-rule="evenodd" clip-rule="evenodd" d="M28.8535 29.7571C26.5598 31.594 23.687 32.6231 20.7073 32.6753C17.7275 32.7275 14.8179 31.7997 12.4567 30.0443C10.0954 28.2889 8.42286 25.8104 7.71386 23.0159C7.00485 20.2215 7.30156 17.2773 8.55522 14.6672C9.80888 12.0571 11.9449 9.93625 14.6124 8.65316C17.2799 7.37007 20.3201 7.00105 23.2336 7.60673C26.1471 8.21241 28.7605 9.75677 30.6445 11.9861C32.5284 14.2153 33.5709 16.997 33.6005 19.8739C33.609 20.6944 34.3049 21.353 35.1549 21.3449C36.0049 21.3367 36.6871 20.6649 36.6787 19.8443C36.6421 16.293 35.3553 12.8594 33.0297 10.1075C30.7041 7.35566 27.4781 5.44929 23.8816 4.70164C20.2852 3.95398 16.5323 4.4095 13.2396 5.99335C9.94681 7.57721 7.31005 10.1952 5.76252 13.4172C4.21499 16.6391 3.84873 20.2734 4.72394 23.7229C5.59914 27.1724 7.66374 30.2319 10.5785 32.3988C13.4933 34.5656 17.0849 35.7109 20.7631 35.6465C24.4414 35.5821 27.9875 34.3117 30.819 32.0442C31.4732 31.5203 31.5636 30.5835 31.0209 29.952C30.4781 29.3204 29.5078 29.2331 28.8535 29.7571Z" fill="#3A5837"></path>
<path d="M35.7178 25.4942C35.7178 27.04 34.4198 28.2932 32.8185 28.2932C31.2173 28.2932 29.9192 27.04 29.9192 25.4942C29.9192 23.9484 31.2173 22.6953 32.8185 22.6953C34.4198 22.6953 35.7178 23.9484 35.7178 25.4942Z" fill="#3A5837"></path>
</svg></svg></g></g><defs><clipPath id="SvgjsClipPath1050"><rect width="1000" height="1000" x="0" y="0" rx="500" ry="500"></rect></clipPath></defs></svg></g><g id="dark-icon"><svg xmlns="http://www.w3.org/2000/svg" version="1.1" xmlns:xlink="http://www.w3.org/1999/xlink" xmlns:svgjs="http://svgjs.dev/svgjs" width="1000" height="1000"><g><g transform="matrix(24.390243902439025,0,0,24.390243902439025,0,12.195121951219505)" style="filter: contrast(0.7407407407407407) brightness(2)"><svg xmlns="http://www.w3.org/2000/svg" version="1.1" xmlns:xlink="http://www.w3.org/1999/xlink" xmlns:svgjs="http://svgjs.dev/svgjs" width="41" height="40"><svg width="41" height="40" viewBox="0 0 41 40" fill="none" xmlns="http://www.w3.org/2000/svg">
<path fill-rule="evenodd" clip-rule="evenodd" d="M28.8535 29.7571C26.5598 31.594 23.687 32.6231 20.7073 32.6753C17.7275 32.7275 14.8179 31.7997 12.4567 30.0443C10.0954 28.2889 8.42286 25.8104 7.71386 23.0159C7.00485 20.2215 7.30156 17.2773 8.55522 14.6672C9.80888 12.0571 11.9449 9.93625 14.6124 8.65316C17.2799 7.37007 20.3201 7.00105 23.2336 7.60673C26.1471 8.21241 28.7605 9.75677 30.6445 11.9861C32.5284 14.2153 33.5709 16.997 33.6005 19.8739C33.609 20.6944 34.3049 21.353 35.1549 21.3449C36.0049 21.3367 36.6871 20.6649 36.6787 19.8443C36.6421 16.293 35.3553 12.8594 33.0297 10.1075C30.7041 7.35566 27.4781 5.44929 23.8816 4.70164C20.2852 3.95398 16.5323 4.4095 13.2396 5.99335C9.94681 7.57721 7.31005 10.1952 5.76252 13.4172C4.21499 16.6391 3.84873 20.2734 4.72394 23.7229C5.59914 27.1724 7.66374 30.2319 10.5785 32.3988C13.4933 34.5656 17.0849 35.7109 20.7631 35.6465C24.4414 35.5821 27.9875 34.3117 30.819 32.0442C31.4732 31.5203 31.5636 30.5835 31.0209 29.952C30.4781 29.3204 29.5078 29.2331 28.8535 29.7571Z" fill="#3A5837"></path>
<path d="M35.7178 25.4942C35.7178 27.04 34.4198 28.2932 32.8185 28.2932C31.2173 28.2932 29.9192 27.04 29.9192 25.4942C29.9192 23.9484 31.2173 22.6953 32.8185 22.6953C34.4198 22.6953 35.7178 23.9484 35.7178 25.4942Z" fill="#3A5837"></path>
</svg></svg></g></g></svg></g></svg>